<?xml version="1.0" encoding="UTF-8"?><svg id="Layer_1" xmlns="http://www.w3.org/2000/svg" viewBox="0 0 560.79 560.79"><defs><style>.cls-1{fill:#454fa0;}.cls-2{fill:#fff;}</style></defs><circle class="cls-1" cx="280.39" cy="280.39" r="280.39"/><path class="cls-2" d="m336.43,76.56c-1.29.22-2.59.48-3.88.76-26.12,5.78-46.73,23.03-57.75,45.27l-.07-.04c-14.3,28.55-38.36,51.95-68.81,65.17,23.68,4.3,46.74,8.27,67.61,7.44,27.08-1.07,50.49-10.22,66.82-37.15.86-1.41,1.7-2.87,2.52-4.38,14.69-27.19,9.13-55.08-6.43-77.07Z"/><path class="cls-2" d="m434.17,142.23c-6.59-36.94-38.76-62.45-74.15-66.1,25.56,51.91,4.02,91.44-25.94,143.1-35.43,61.08-5.26,122.22-1.95,129.45.91-9.48,3.33-18.65,6.87-27.55,10.92-27.45,32.26-52.48,52.55-75.63,33.93-38.71,50.28-60.26,42.61-103.27Z"/><path class="cls-2" d="m75.32,334.26c.84,1.01,1.69,2.01,2.58,3,17.95,19.84,43.13,29.22,67.91,27.78v.08c31.88-1.69,64.13,7.63,90.68,27.55-7.98-22.71-15.94-44.71-26.98-62.44-14.33-23.01-33.86-38.82-65.35-39.69-1.65-.05-3.33-.06-5.05-.02-30.89.69-52.39,19.32-63.79,43.72Z"/><path class="cls-2" d="m84.03,216.83c-28.84,24-35.09,64.58-20.76,97.14,32.46-47.89,77.47-48.74,137.19-48.26,70.6.57,108.81-55.9,113.46-62.36-8.68,3.9-17.85,6.33-27.34,7.66-29.26,4.09-61.57-2.07-91.72-8.25-50.43-10.34-77.25-13.88-110.82,14.06Z"/><path class="cls-2" d="m429.91,429.88c.45-1.23.88-2.48,1.28-3.75,8.02-25.52,3.37-51.99-10.42-72.63l.07-.04c-17.6-26.64-25.88-59.17-22.14-92.15-15.55,18.38-30.49,36.38-40.19,54.88-12.59,24-16.34,48.85-1.15,76.45.8,1.45,1.64,2.9,2.54,4.37,16.23,26.3,43.18,35.4,70,32.88Z"/><path class="cls-2" d="m324.23,481.82c35.3,12.72,73.46-2.43,94.29-31.27-57.74-3.75-81.25-42.14-111.06-93.89-35.25-61.18-103.29-65.55-111.21-66.28,7.76,5.51,14.5,12.19,20.45,19.7,18.34,23.16,29.38,54.14,39.31,83.28,16.61,48.72,27.13,73.64,68.23,88.46Z"/></svg>