<?xml version="1.0" encoding="UTF-8"?>
<svg id="Layer_2" data-name="Layer 2" xmlns="http://www.w3.org/2000/svg" width="514.52" height="514.52" viewBox="0 0 514.52 514.52">
  <defs>
    <style>
      .cls-1 {
        fill: #fff;
      }

      .cls-2 {
        fill: #006ae7;
      }
    </style>
  </defs>
  <g id="Layer_2-2" data-name="Layer 2">
    <g>
      <circle class="cls-2" cx="257.26" cy="257.26" r="257.26"/>
      <g>
        <g>
          <path class="cls-1" d="m308.67,70.24c-1.19.21-2.37.44-3.56.7-23.96,5.31-42.88,21.13-52.98,41.54l-.07-.04c-13.12,26.19-35.2,47.67-63.13,59.79,21.73,3.95,42.88,7.58,62.03,6.83,24.84-.98,46.32-9.38,61.31-34.09.78-1.29,1.56-2.63,2.3-4.02,13.48-24.94,8.38-50.54-5.9-70.7h0Z"/>
          <path class="cls-1" d="m398.36,130.49c-6.04-33.9-35.56-57.3-68.03-60.65,23.45,47.63,3.69,83.9-23.8,131.3-32.5,56.04-4.83,112.13-1.79,118.77.83-8.69,3.05-17.11,6.31-25.27,10.02-25.19,29.6-48.15,48.22-69.39,31.13-35.51,46.14-55.29,39.09-94.74h0Z"/>
        </g>
        <g>
          <path class="cls-1" d="m69.11,306.69c.77.93,1.55,1.84,2.37,2.75,16.47,18.2,39.57,26.81,62.31,25.49v.08c29.26-1.55,58.85,7,83.2,25.28-7.32-20.84-14.62-41.02-24.76-57.29-13.15-21.11-31.06-35.62-59.96-36.42-1.52-.04-3.06-.05-4.64-.02-28.34.63-48.07,17.72-58.52,40.11h0Z"/>
          <path class="cls-1" d="m77.1,198.94c-26.46,22.02-32.2,59.26-19.05,89.12,29.79-43.94,71.08-44.71,125.87-44.27,64.78.52,99.83-51.29,104.1-57.21-7.96,3.58-16.38,5.82-25.09,7.03-26.84,3.76-56.48-1.9-84.16-7.57-46.26-9.48-70.87-12.74-101.68,12.91h0Z"/>
        </g>
        <g>
          <path class="cls-1" d="m394.45,394.42c.41-1.13.8-2.28,1.17-3.43,7.36-23.41,3.09-47.71-9.55-66.64l.07-.04c-16.14-24.44-23.74-54.29-20.31-84.54-14.26,16.86-27.97,33.38-36.88,50.35-11.54,22.03-15,44.82-1.05,70.14.74,1.33,1.5,2.67,2.33,4.01,14.89,24.13,39.61,32.48,64.22,30.17h0Z"/>
          <path class="cls-1" d="m297.48,442.07c32.39,11.67,67.4-2.23,86.51-28.69-52.97-3.44-74.55-38.66-101.9-86.14-32.35-56.13-94.76-60.14-102.04-60.82,7.12,5.06,13.3,11.18,18.76,18.08,16.83,21.25,26.95,49.68,36.07,76.41,15.24,44.7,24.89,67.57,62.6,81.16Z"/>
        </g>
      </g>
    </g>
  </g>
</svg>